<?xml version="1.0" encoding="utf-8"?>
<!-- Generator: Adobe Illustrator 24.1.0, SVG Export Plug-In . SVG Version: 6.00 Build 0)  -->
<svg version="1.1" id="Capa_1" xmlns="http://www.w3.org/2000/svg" xmlns:xlink="http://www.w3.org/1999/xlink" x="0px" y="0px"
	 viewBox="0 0 512 512" style="enable-background:new 0 0 512 512;" xml:space="preserve">
<style type="text/css">
	.st0{fill:#075985;}
</style>
<g>
	<path class="st0" d="M164.593,162.777L77.76,249.61c-5.858,5.858-5.858,15.355,0,21.213l78.4,78.4
		c5.857,5.858,15.355,5.859,21.213,0c5.858-5.858,5.858-15.355,0-21.213l-67.793-67.794l76.226-76.227
		c5.858-5.858,5.858-15.355,0-21.213S170.45,156.918,164.593,162.777z"/>
	<path class="st0" d="M355.84,133.777c-5.857-5.858-15.355-5.858-21.213,0s-5.858,15.355,0,21.213l67.793,67.794l-76.226,76.227
		c-5.858,5.858-5.858,15.355,0,21.213c5.857,5.858,15.355,5.859,21.213,0l86.833-86.833c5.858-5.858,5.858-15.355,0-21.213
		L355.84,133.777z"/>
	<path class="st0" d="M312.911,94.102c-10.005-3.534-20.973,1.713-24.506,11.715l-101.56,287.577
		c-3.531,10.003,1.712,20.973,11.714,24.506c9.999,3.531,20.973-1.711,24.506-11.714l101.56-287.577
		C328.156,108.605,322.912,97.633,312.911,94.102L312.911,94.102z"/>
</g>
</svg>
