<svg id="Capa_1" data-name="Capa 1" xmlns="http://www.w3.org/2000/svg" viewBox="0 0 512.001 512"><defs><style>.cls-1{fill:#075985;}</style></defs><path class="cls-1" d="M227.925,96.342a8.933,8.933,0,0,0-12.117,0,9.841,9.841,0,0,0-1.8,2.813,8.536,8.536,0,1,0,15.7,0A9.9,9.9,0,0,0,227.925,96.342Z"/><path class="cls-1" d="M262.058,96.342a8.834,8.834,0,0,0-2.817-1.8,8.18,8.18,0,0,0-4.95-.508,5.415,5.415,0,0,0-1.537.508,6.522,6.522,0,0,0-1.533.771c-.429.341-.854.683-1.279,1.025a8.771,8.771,0,0,0-1.8,2.813,8.524,8.524,0,0,0-.679,3.246,8.967,8.967,0,0,0,2.475,6.059c.425.341.85.683,1.279,1.021a6.58,6.58,0,0,0,1.533.771,5.576,5.576,0,0,0,1.537.513,11.951,11.951,0,0,0,1.708.171,8.546,8.546,0,0,0,3.242-.683,8.064,8.064,0,0,0,2.817-1.792,8.986,8.986,0,0,0,2.475-6.058,8.528,8.528,0,0,0-.683-3.246A9.868,9.868,0,0,0,262.058,96.342Z"/><path class="cls-1" d="M296.191,96.342a8.834,8.834,0,0,0-2.817-1.8,8.57,8.57,0,0,0-6.487,0,7.746,7.746,0,0,0-4.608,4.608,8.524,8.524,0,0,0-.679,3.246,8.967,8.967,0,0,0,2.475,6.059,9.91,9.91,0,0,0,2.813,1.791,8.04,8.04,0,0,0,6.487,0,8.891,8.891,0,0,0,2.817-1.792,8.986,8.986,0,0,0,2.475-6.058,8.528,8.528,0,0,0-.683-3.246A9.919,9.919,0,0,0,296.191,96.342Z"/><path class="cls-1" d="M53.675,407.125a8.981,8.981,0,0,0,6.059,2.475,8.546,8.546,0,0,0,3.242-.683,9.952,9.952,0,0,0,2.817-1.791,9.919,9.919,0,0,0,1.792-2.817,8.546,8.546,0,0,0,.683-3.242,8.979,8.979,0,0,0-2.475-6.059,9.875,9.875,0,0,0-2.817-1.8,8.846,8.846,0,0,0-9.3,1.8,8.964,8.964,0,0,0-2.475,6.059,8.523,8.523,0,0,0,.679,3.242A9.824,9.824,0,0,0,53.675,407.125Z"/><path class="cls-1" d="M90.621,408.916a8.04,8.04,0,0,0,6.487,0,7.69,7.69,0,0,0,4.608-4.608,8.04,8.04,0,0,0,0-6.487,7.716,7.716,0,0,0-4.608-4.608,8.57,8.57,0,0,0-6.487,0,7.746,7.746,0,0,0-4.608,4.608,8.081,8.081,0,0,0,0,6.487A7.716,7.716,0,0,0,90.621,408.916Z"/><path class="cls-1" d="M121.941,407.125a8.653,8.653,0,0,0,12.117,0,9.919,9.919,0,0,0,1.792-2.817,7.145,7.145,0,0,0,.683-3.242,8.533,8.533,0,0,0-14.592-6.059,9.841,9.841,0,0,0-1.8,2.813,8.081,8.081,0,0,0,0,6.487A9.866,9.866,0,0,0,121.941,407.125Z"/><path class="cls-1" d="M387.242,393.213a7.829,7.829,0,0,0-6.487,0,9.833,9.833,0,0,0-2.813,1.8,8.653,8.653,0,0,0,0,12.117,9.913,9.913,0,0,0,2.813,1.792,8.04,8.04,0,0,0,6.487,0,9.933,9.933,0,0,0,2.817-1.792,8.653,8.653,0,0,0,0-12.117A9.845,9.845,0,0,0,387.242,393.213Z"/><path class="cls-1" d="M416.425,392.7a5.379,5.379,0,0,0-1.533.508,6.506,6.506,0,0,0-1.542.771l-1.275,1.025a8.788,8.788,0,0,0-2.475,6.059,8.546,8.546,0,0,0,.683,3.242,8.845,8.845,0,0,0,1.792,2.817,8.568,8.568,0,1,0,4.35-14.422Z"/><path class="cls-1" d="M458.325,395.008a8.568,8.568,0,1,0-6.058,14.592,8.45,8.45,0,0,0,7.85-11.779A8.771,8.771,0,0,0,458.325,395.008Z"/><path class="cls-1" d="M494.933,298.667H426.666V281.6h17.067A17.087,17.087,0,0,0,460.8,264.533h42.667a8.533,8.533,0,1,0,0-17.066H460.8A17.087,17.087,0,0,0,443.733,230.4h-51.2a17.084,17.084,0,0,0-17.067,17.067h-76.8A17.084,17.084,0,0,0,281.6,230.4H264.532V213.333H307.2a8.533,8.533,0,0,0,8.533-8.533V187.733a25.628,25.628,0,0,0-25.6-25.6V145.066H332.8A17.084,17.084,0,0,0,349.867,128V17.067A17.084,17.084,0,0,0,332.8,0H179.2a17.084,17.084,0,0,0-17.067,17.067V128A17.084,17.084,0,0,0,179.2,145.067h42.667v17.067a25.628,25.628,0,0,0-25.6,25.6V204.8a8.533,8.533,0,0,0,8.533,8.533h42.667V230.4H230.4a17.084,17.084,0,0,0-17.067,17.067h-76.8A17.084,17.084,0,0,0,119.466,230.4h-51.2A17.084,17.084,0,0,0,51.2,247.467H8.533a8.533,8.533,0,0,0,0,17.066H51.2A17.084,17.084,0,0,0,68.267,281.6H85.334v17.067H17.067A17.083,17.083,0,0,0,0,315.733V426.666a17.084,17.084,0,0,0,17.067,17.067H59.734V460.8a25.628,25.628,0,0,0-25.6,25.6v17.067A8.533,8.533,0,0,0,42.667,512h102.4a8.533,8.533,0,0,0,8.533-8.533V486.4A25.628,25.628,0,0,0,128,460.8V443.733h42.667a17.084,17.084,0,0,0,17.067-17.067V315.733a17.084,17.084,0,0,0-17.067-17.067H102.4V281.6h17.067a17.084,17.084,0,0,0,17.067-17.067h76.8A17.084,17.084,0,0,0,230.4,281.6h51.2a17.084,17.084,0,0,0,17.067-17.067h76.8A17.084,17.084,0,0,0,392.535,281.6H409.6v17.067H341.333a17.084,17.084,0,0,0-17.067,17.067V426.667a17.084,17.084,0,0,0,17.067,17.067H384V460.8a25.628,25.628,0,0,0-25.6,25.6v17.067A8.533,8.533,0,0,0,366.933,512h102.4a8.532,8.532,0,0,0,8.534-8.534V486.4a25.628,25.628,0,0,0-25.6-25.6V443.733h42.667A17.087,17.087,0,0,0,512,426.666V315.733A17.087,17.087,0,0,0,494.933,298.667ZM136.533,486.4v8.533H51.2V486.4a8.544,8.544,0,0,1,8.533-8.533H128A8.544,8.544,0,0,1,136.533,486.4ZM76.8,460.8V443.733h34.133V460.8Zm93.867-145.067.012,110.933H17.067V315.733Zm-102.4-51.2V247.466h51.2l.006,8.5-.006.031.006.031.006,8.5ZM179.2,128V17.067H332.8L332.813,128Zm93.867,17.067v17.067H238.934V145.067Zm-59.734,51.2v-8.533a8.544,8.544,0,0,1,8.533-8.533h68.267a8.544,8.544,0,0,1,8.533,8.533v8.533ZM230.4,264.533V247.466h51.2l.006,8.5L281.6,256l.006.031.006,8.5Zm162.133,0V247.466h51.2l0,8.513,0,.021,0,.021,0,8.513H392.533ZM460.8,486.4v8.533H375.467V486.4A8.544,8.544,0,0,1,384,477.867h68.267A8.541,8.541,0,0,1,460.8,486.4Zm-59.733-25.6V443.733H435.2V460.8Zm-59.734-34.133V315.733h153.6l.009,110.933H341.333Z"/></svg>