<?xml version="1.0" standalone="no"?>
<!DOCTYPE svg PUBLIC "-//W3C//DTD SVG 20010904//EN"
 "http://www.w3.org/TR/2001/REC-SVG-20010904/DTD/svg10.dtd">
<svg version="1.0" xmlns="http://www.w3.org/2000/svg"
 width="512.000000pt" height="512.000000pt" viewBox="0 0 512.000000 512.000000"
 preserveAspectRatio="xMidYMid meet">

<g transform="translate(0.000000,512.000000) scale(0.100000,-0.100000)"
fill="#075985" stroke="none">
<path d="M95 4786 c-41 -18 -83 -69 -90 -109 -3 -18 -4 -982 -3 -2144 l3
-2112 21 -27 c11 -15 33 -37 48 -48 27 -21 34 -21 966 -21 932 0 939 0 966 21
60 44 69 67 72 185 l4 109 1068 2 c1062 3 1069 3 1096 24 53 39 69 71 69 134
0 63 -16 95 -69 134 -26 20 -43 21 -312 24 -156 2 -284 4 -284 6 0 1 -20 103
-45 226 -25 123 -45 230 -45 237 0 11 106 13 568 13 471 0 578 3 625 15 173
45 307 178 352 350 23 89 23 2061 0 2150 -45 172 -179 305 -352 350 -49 13
-238 15 -1364 15 l-1308 0 -3 189 c-3 207 -6 216 -72 265 -27 21 -36 21 -954
23 -755 2 -933 0 -957 -11z m1665 -546 l0 -240 -720 0 -720 0 0 240 0 240 720
0 720 0 0 -240z m2966 -266 c15 -11 37 -33 48 -48 21 -27 21 -38 24 -777 l2
-749 -1360 0 -1360 0 0 800 0 800 1309 -2 c1305 -3 1310 -3 1337 -24z m-2966
-534 l0 -240 -720 0 -720 0 0 240 0 240 720 0 720 0 0 -240z m0 -1680 l0
-1120 -720 0 -720 0 0 1120 0 1120 720 0 720 0 0 -1120z m3038 211 c-3 -118
-12 -141 -72 -185 -27 -21 -32 -21 -1337 -24 l-1309 -2 0 160 0 160 1361 0
1361 0 -4 -109z m-2278 -544 c0 -7 -20 -114 -45 -237 -25 -123 -45 -225 -45
-227 0 -2 -79 -3 -175 -3 l-175 0 0 240 0 240 220 0 c175 0 220 -3 220 -13z
m710 10 c0 -2 20 -104 45 -227 25 -123 45 -230 45 -237 0 -10 -56 -13 -280
-13 -224 0 -280 3 -280 13 0 7 20 114 45 237 25 123 45 225 45 227 0 2 86 3
190 3 105 0 190 -1 190 -3z"/>
<path d="M735 2546 c-67 -29 -105 -106 -91 -181 9 -47 59 -102 104 -116 24 -6
136 -9 314 -7 261 3 278 4 304 24 53 39 69 71 69 134 0 63 -16 95 -69 134 -26
20 -42 21 -314 23 -223 2 -294 0 -317 -11z"/>
<path d="M960 1587 c-49 -16 -133 -102 -148 -153 -28 -94 -8 -169 63 -239 101
-102 229 -102 330 0 98 97 101 222 8 325 -65 72 -158 97 -253 67z"/>
</g>
</svg>
